# Blender v2.92.0 OBJ File: ''
# www.blender.org
mtllib untitled.mtl
o Body1_Body1_1.001
v -2.002170 6.000000 1.000000
v 1.997840 6.000000 1.000000
v 1.997840 12.000000 1.000000
v -2.002170 12.000000 1.000000
v -2.002170 12.000000 1.000000
v 1.997840 12.000000 1.000000
v 2.002170 12.000000 -1.000000
v -1.997840 12.000000 -1.000000
v -1.997840 12.000000 -1.000000
v 2.002170 12.000000 -1.000000
v 2.002170 6.000000 -1.000000
v -1.997840 6.000000 -1.000000
v -1.997840 6.000000 -1.000000
v 2.002170 6.000000 -1.000000
v 1.997840 6.000000 1.000000
v -2.002170 6.000000 1.000000
v 1.997840 6.000000 1.000000
v 2.002170 6.000000 -1.000000
v 2.002170 12.000000 -1.000000
v 1.997840 12.000000 1.000000
v -1.997840 6.000000 -1.000000
v -2.002170 6.000000 1.000000
v -2.002170 12.000000 1.000000
v -1.997840 12.000000 -1.000000
vt 0.474081 0.377354
vt 0.615923 0.377354
vt 0.615924 0.590116
vt 0.474082 0.590116
vt 0.474082 0.590116
vt 0.615924 0.590116
vt 0.616077 0.661036
vt 0.474235 0.661036
vt 0.828686 0.590116
vt 0.686844 0.590116
vt 0.686844 0.377354
vt 0.828686 0.377354
vt 0.474234 0.306433
vt 0.616076 0.306433
vt 0.615923 0.377354
vt 0.474081 0.377354
vt 0.615923 0.377354
vt 0.686844 0.377354
vt 0.686844 0.590116
vt 0.615924 0.590116
vt 0.403161 0.377354
vt 0.474081 0.377354
vt 0.474082 0.590116
vt 0.403161 0.590116
vn 0.0000 0.0000 1.0000
vn 0.0000 1.0000 -0.0000
vn 0.0000 0.0000 -1.0000
vn 0.0000 -1.0000 0.0000
vn 1.0000 0.0000 0.0022
vn -1.0000 0.0000 -0.0022
usemtl lambert1.001
s off
f 1/1/1 2/2/1 3/3/1
f 1/1/1 3/3/1 4/4/1
f 5/5/2 6/6/2 7/7/2
f 5/5/2 7/7/2 8/8/2
f 9/9/3 10/10/3 11/11/3
f 9/9/3 11/11/3 12/12/3
f 13/13/4 14/14/4 15/15/4
f 13/13/4 15/15/4 16/16/4
f 17/17/5 18/18/5 19/19/5
f 17/17/5 19/19/5 20/20/5
f 21/21/6 22/22/6 23/23/6
f 21/21/6 23/23/6 24/24/6
o Head1_Head1_1.001
v -2.000000 12.000000 2.000000
v 2.000000 12.000000 2.000000
v 2.000000 16.000000 2.000000
v -2.000000 16.000000 2.000000
v -2.000000 16.000000 2.000000
v 2.000000 16.000000 2.000000
v 2.000000 16.000000 -2.000000
v -2.000000 16.000000 -2.000000
v -2.000000 16.000000 -2.000000
v 2.000000 16.000000 -2.000000
v 2.000000 12.000000 -2.000000
v -2.000000 12.000000 -2.000000
v -2.000000 12.000000 -2.000000
v 2.000000 12.000000 -2.000000
v 2.000000 12.000000 2.000000
v -2.000000 12.000000 2.000000
v 2.000000 12.000000 2.000000
v 2.000000 12.000000 -2.000000
v 2.000000 16.000000 -2.000000
v 2.000000 16.000000 2.000000
v -2.000000 12.000000 -2.000000
v -2.000000 12.000000 2.000000
v -2.000000 16.000000 2.000000
v -2.000000 16.000000 -2.000000
vt 0.214239 0.709217
vt 0.355532 0.709218
vt 0.355533 0.850513
vt 0.214239 0.850512
vt 0.214239 0.850512
vt 0.355533 0.850513
vt 0.355532 0.991807
vt 0.214239 0.991807
vt 0.638122 0.850512
vt 0.496827 0.850512
vt 0.496827 0.709217
vt 0.638122 0.709218
vt 0.214239 0.567923
vt 0.355533 0.567923
vt 0.355532 0.709218
vt 0.214239 0.709217
vt 0.355532 0.709218
vt 0.496827 0.709217
vt 0.496827 0.850512
vt 0.355533 0.850513
vt 0.072944 0.709217
vt 0.214239 0.709217
vt 0.214239 0.850512
vt 0.072944 0.850513
vn 0.0000 0.0000 1.0000
vn 0.0000 1.0000 0.0000
vn 0.0000 0.0000 -1.0000
vn 0.0000 -1.0000 0.0000
vn 1.0000 0.0000 0.0000
vn -1.0000 0.0000 0.0000
usemtl lambert1.001
s off
f 25/25/7 26/26/7 27/27/7
f 25/25/7 27/27/7 28/28/7
f 29/29/8 30/30/8 31/31/8
f 29/29/8 31/31/8 32/32/8
f 33/33/9 34/34/9 35/35/9
f 33/33/9 35/35/9 36/36/9
f 37/37/10 38/38/10 39/39/10
f 37/37/10 39/39/10 40/40/10
f 41/41/11 42/42/11 43/43/11
f 41/41/11 43/43/11 44/44/11
f 45/45/12 46/46/12 47/47/12
f 45/45/12 47/47/12 48/48/12
o ArmLeft1_ArmLeft1_1.001
v 2.000000 9.000000 1.000000
v 4.000000 9.000000 1.000000
v 3.000000 12.000000 1.000000
v 2.000000 12.000000 1.000000
v 2.000000 7.000000 1.000000
v 2.666670 7.000000 1.000000
v 3.333330 7.000000 1.000000
v 4.000000 7.000000 1.000000
v 2.000000 6.000000 1.000000
v 2.666670 6.000000 1.000000
v 3.333330 6.000000 1.000000
v 4.000000 6.000000 1.000000
v 3.000000 5.000000 1.000000
v 3.666670 5.000000 1.000000
v 2.000000 12.000000 1.000000
v 3.000000 12.000000 1.000000
v 3.000000 12.000000 -1.000000
v 2.000000 12.000000 -1.000000
v 2.000000 12.000000 -1.000000
v 3.000000 12.000000 -1.000000
v 4.000000 9.000000 -1.000000
v 2.000000 9.000000 -1.000000
v 2.000000 7.000000 -1.000000
v 4.000000 7.000000 -1.000000
v 3.333330 7.000000 -1.000000
v 4.000000 6.000000 -1.000000
v 3.333330 6.000000 -1.000000
v 3.666670 5.000000 -1.000000
v 3.000000 5.000000 -1.000000
v 4.000000 9.000000 1.000000
v 4.000000 9.000000 -1.000000
v 3.000000 12.000000 -1.000000
v 3.000000 12.000000 1.000000
v 2.000000 9.000000 -1.000000
v 2.000000 9.000000 1.000000
v 2.000000 12.000000 1.000000
v 2.000000 12.000000 -1.000000
v 2.000000 7.000000 -1.000000
v 2.000000 7.000000 0.000000
v 2.000000 7.000000 1.000000
v 2.000000 6.000000 0.000000
v 2.000000 6.000000 1.000000
v 3.000000 5.000000 1.000000
v 3.000000 5.000000 -1.000000
v 3.666670 5.000000 -1.000000
v 3.666670 5.000000 1.000000
v 4.000000 7.000000 1.000000
v 4.000000 7.000000 -1.000000
v 4.000000 9.000000 -1.000000
v 4.000000 9.000000 1.000000
v 4.000000 6.000000 1.000000
v 4.000000 6.000000 -1.000000
v 3.666670 5.000000 1.000000
v 3.666670 5.000000 -1.000000
v 2.000000 7.000000 -1.000000
v 2.666670 7.000000 -1.000000
v 2.666670 7.000000 0.000000
v 2.000000 7.000000 0.000000
v 2.666670 7.000000 1.000000
v 3.333330 7.000000 -1.000000
v 3.333330 7.000000 1.000000
v 2.000000 6.000000 0.000000
v 2.666670 6.000000 0.000000
v 2.666670 6.000000 1.000000
v 2.000000 6.000000 1.000000
v 3.333330 7.000000 1.000000
v 3.333330 7.000000 -1.000000
v 3.333330 6.000000 -1.000000
v 3.333330 6.000000 1.000000
v 3.000000 5.000000 -1.000000
v 3.000000 5.000000 1.000000
v 2.000000 7.000000 0.000000
v 2.666670 7.000000 0.000000
v 2.666670 6.000000 0.000000
v 2.000000 6.000000 0.000000
v 2.666670 7.000000 0.000000
v 2.666670 7.000000 1.000000
v 2.666670 6.000000 1.000000
v 2.666670 6.000000 0.000000
vt 0.807349 0.794632
vt 0.879828 0.794633
vt 0.843588 0.903352
vt 0.807349 0.903352
vt 0.807349 0.722153
vt 0.831509 0.722154
vt 0.855669 0.722154
vt 0.879828 0.722154
vt 0.807349 0.685914
vt 0.831509 0.685913
vt 0.855668 0.685913
vt 0.879828 0.685913
vt 0.843588 0.649673
vt 0.867748 0.649674
vt 0.807349 0.903352
vt 0.843588 0.903352
vt 0.843589 0.975832
vt 0.807349 0.975831
vt 0.734869 0.903352
vt 0.698629 0.903352
vt 0.662390 0.794632
vt 0.734869 0.794632
vt 0.734869 0.722153
vt 0.662390 0.722153
vt 0.686549 0.722153
vt 0.662390 0.685913
vt 0.686549 0.685914
vt 0.674469 0.649674
vt 0.698630 0.649674
vt 0.734869 0.794632
vt 0.807349 0.794632
vt 0.807349 0.903352
vt 0.734869 0.903352
vt 0.734869 0.722153
vt 0.771110 0.722153
vt 0.807349 0.722153
vt 0.771110 0.685913
vt 0.807349 0.685914
vt 0.879828 0.625514
vt 0.952308 0.625514
vt 0.952308 0.649673
vt 0.879828 0.649673
vt 0.879828 0.722154
vt 0.952307 0.722153
vt 0.952308 0.794632
vt 0.879828 0.794633
vt 0.952307 0.504715
vt 0.952307 0.528874
vt 0.916066 0.528874
vt 0.916066 0.504714
vt 0.879827 0.528873
vt 0.952308 0.553034
vt 0.879827 0.553034
vt 0.771110 0.685913
vt 0.771109 0.661754
vt 0.807349 0.661753
vt 0.807349 0.685914
vt 0.746949 0.625514
vt 0.771108 0.625514
vt 0.771109 0.661754
vt 0.746949 0.661753
vt 0.771108 0.625514
vt 0.807349 0.625514
vt 0.807349 0.661753
vt 0.771109 0.661754
vt 0.879828 0.794633
vt 0.952308 0.794632
vt 0.952308 0.903352
vt 0.879829 0.903352
vt 0.879828 0.685913
vt 0.952308 0.685913
vt 0.879828 0.649673
vt 0.952308 0.649673
vt 0.879827 0.553034
vt 0.952308 0.553034
vt 0.952307 0.589274
vt 0.879827 0.589274
vt 0.952308 0.625514
vt 0.879828 0.625514
vn 0.0000 0.0000 1.0000
vn 0.0000 1.0000 0.0000
vn 0.0000 0.0000 -1.0000
vn -1.0000 0.0000 0.0000
vn 0.0000 -1.0000 0.0000
vn 1.0000 0.0000 0.0000
vn 0.9487 0.3162 0.0000
vn 0.9864 -0.1644 0.0000
vn 0.9487 -0.3162 0.0000
vn -0.9864 0.1644 -0.0000
vn -0.9487 0.3162 0.0000
usemtl lambert1.001
s off
f 49/49/13 50/50/13 51/51/13
f 49/49/13 51/51/13 52/52/13
f 49/49/13 53/53/13 54/54/13
f 49/49/13 54/54/13 55/55/13
f 49/49/13 55/55/13 56/56/13
f 56/56/13 50/50/13 49/49/13
f 54/54/13 53/53/13 57/57/13
f 54/54/13 57/57/13 58/58/13
f 56/56/13 55/55/13 59/59/13
f 56/56/13 59/59/13 60/60/13
f 60/60/13 59/59/13 61/61/13
f 60/60/13 61/61/13 62/62/13
f 63/63/14 64/64/14 65/65/14
f 63/63/14 65/65/14 66/66/14
f 67/67/15 68/68/15 69/69/15
f 67/67/15 69/69/15 70/70/15
f 71/71/15 70/70/15 69/69/15
f 71/71/15 69/69/15 72/72/15
f 73/73/15 72/72/15 74/74/15
f 73/73/15 74/74/15 75/75/15
f 75/75/15 74/74/15 76/76/15
f 75/75/15 76/76/15 77/77/15
f 82/78/16 83/79/16 84/80/16
f 82/78/16 84/80/16 85/81/16
f 82/78/16 86/82/16 87/83/16
f 82/78/16 87/83/16 88/84/16
f 88/84/16 83/79/16 82/78/16
f 88/84/16 87/83/16 89/85/16
f 88/84/16 89/85/16 90/86/16
f 91/87/17 92/88/17 93/89/17
f 91/87/17 93/89/17 94/90/17
f 95/91/18 96/92/18 97/93/18
f 95/91/18 97/93/18 98/94/18
f 103/95/17 104/96/17 105/97/17
f 103/95/17 105/97/17 106/98/17
f 107/99/17 104/96/17 108/100/17
f 108/100/17 109/101/17 107/99/17
f 110/102/17 111/103/17 112/104/17
f 110/102/17 112/104/17 113/105/17
f 120/106/15 121/107/15 122/108/15
f 120/106/15 122/108/15 123/109/15
f 124/110/18 125/111/18 126/112/18
f 124/110/18 126/112/18 127/113/18
s 1
f 78/114/19 79/115/19 80/116/19
f 78/114/19 80/116/19 81/117/19
f 96/92/18 95/91/18 99/118/20
f 96/92/18 99/118/20 100/119/20
f 100/119/20 99/118/20 101/120/21
f 100/119/20 101/120/21 102/121/21
f 114/122/16 115/123/16 116/124/22
f 114/122/16 116/124/22 117/125/22
f 117/125/22 116/124/22 118/126/23
f 117/125/22 118/126/23 119/127/23
o ArmRight1_ArmRight1_1.001
v -4.000000 9.000000 1.000000
v -2.000000 9.000000 1.000000
v -2.000000 12.000000 1.000000
v -3.000000 12.000000 1.000000
v -4.000000 7.000000 1.000000
v -3.333330 7.000000 1.000000
v -2.666670 7.000000 1.000000
v -2.000000 7.000000 1.000000
v -4.000000 6.000000 1.000000
v -3.333330 6.000000 1.000000
v -3.666670 5.000000 1.000000
v -3.000000 5.000000 1.000000
v -2.666670 6.000000 1.000000
v -2.000000 6.000000 1.000000
v -3.000000 12.000000 1.000000
v -2.000000 12.000000 1.000000
v -2.000000 12.000000 -1.000000
v -3.000000 12.000000 -1.000000
v -3.000000 12.000000 -1.000000
v -2.000000 12.000000 -1.000000
v -2.000000 9.000000 -1.000000
v -4.000000 9.000000 -1.000000
v -4.000000 7.000000 -1.000000
v -2.000000 7.000000 -1.000000
v -3.333330 7.000000 -1.000000
v -3.333330 6.000000 -1.000000
v -4.000000 6.000000 -1.000000
v -3.000000 5.000000 -1.000000
v -3.666670 5.000000 -1.000000
v -2.000000 9.000000 1.000000
v -2.000000 9.000000 -1.000000
v -2.000000 12.000000 -1.000000
v -2.000000 12.000000 1.000000
v -2.000000 7.000000 1.000000
v -2.000000 7.000000 0.000000
v -2.000000 7.000000 -1.000000
v -2.000000 6.000000 1.000000
v -2.000000 6.000000 0.000000
v -4.000000 9.000000 -1.000000
v -4.000000 9.000000 1.000000
v -3.000000 12.000000 1.000000
v -3.000000 12.000000 -1.000000
v -4.000000 7.000000 -1.000000
v -4.000000 7.000000 1.000000
v -4.000000 9.000000 1.000000
v -4.000000 9.000000 -1.000000
v -4.000000 6.000000 -1.000000
v -4.000000 6.000000 1.000000
v -3.666670 5.000000 -1.000000
v -3.000000 5.000000 -1.000000
v -3.000000 5.000000 1.000000
v -3.666670 5.000000 1.000000
v -3.333330 7.000000 -1.000000
v -3.333330 7.000000 1.000000
v -3.333330 6.000000 1.000000
v -3.333330 6.000000 -1.000000
v -3.333330 6.000000 -1.000000
v -3.333330 6.000000 1.000000
v -3.000000 5.000000 1.000000
v -3.000000 5.000000 -1.000000
v -4.000000 6.000000 1.000000
v -4.000000 6.000000 -1.000000
v -3.666670 5.000000 -1.000000
v -3.666670 5.000000 1.000000
v -2.000000 6.000000 1.000000
v -2.666670 6.000000 1.000000
v -2.666670 6.000000 0.000000
v -2.000000 6.000000 0.000000
v -2.666670 7.000000 0.000000
v -2.666670 7.000000 -1.000000
v -2.000000 7.000000 -1.000000
v -2.000000 7.000000 0.000000
v -3.333330 7.000000 1.000000
v -2.666670 7.000000 1.000000
v -3.333330 7.000000 -1.000000
v -2.666670 7.000000 1.000000
v -2.666670 7.000000 0.000000
v -2.666670 6.000000 0.000000
v -2.666670 6.000000 1.000000
v -2.666670 7.000000 0.000000
v -2.000000 7.000000 0.000000
v -2.000000 6.000000 0.000000
v -2.666670 6.000000 0.000000
vt 0.110062 0.446260
vt 0.182541 0.446260
vt 0.182541 0.554980
vt 0.146301 0.554980
vt 0.110062 0.373781
vt 0.134221 0.373781
vt 0.158381 0.373781
vt 0.182541 0.373781
vt 0.110062 0.337541
vt 0.134221 0.337541
vt 0.122141 0.301301
vt 0.146302 0.301301
vt 0.158381 0.337541
vt 0.182541 0.337541
vt 0.146301 0.554980
vt 0.182541 0.554980
vt 0.182541 0.627459
vt 0.146301 0.627459
vt 0.291260 0.554980
vt 0.255020 0.554980
vt 0.255020 0.446260
vt 0.327500 0.446260
vt 0.327500 0.373781
vt 0.255020 0.373781
vt 0.303340 0.373781
vt 0.303340 0.337541
vt 0.327500 0.337541
vt 0.291260 0.301302
vt 0.315420 0.301301
vt 0.182541 0.446260
vt 0.255020 0.446260
vt 0.255020 0.554980
vt 0.182541 0.554980
vt 0.182541 0.373781
vt 0.218780 0.373781
vt 0.255020 0.373781
vt 0.182541 0.337541
vt 0.218780 0.337541
vt 0.037582 0.373781
vt 0.110062 0.373781
vt 0.110062 0.446260
vt 0.037582 0.446261
vt 0.037582 0.337541
vt 0.110062 0.337541
vt 0.037582 0.301301
vt 0.037582 0.277142
vt 0.110061 0.277141
vt 0.110061 0.301301
vt 0.037581 0.204662
vt 0.110061 0.204662
vt 0.110061 0.240902
vt 0.037581 0.240902
vt 0.182541 0.337541
vt 0.182541 0.313381
vt 0.218780 0.313381
vt 0.218780 0.337541
vt 0.073822 0.180502
vt 0.037582 0.180502
vt 0.037582 0.156342
vt 0.073821 0.156342
vt 0.110061 0.204662
vt 0.110061 0.180502
vt 0.037581 0.204662
vt 0.182541 0.277141
vt 0.218780 0.277142
vt 0.218780 0.313381
vt 0.182541 0.313381
vt 0.218780 0.277142
vt 0.242940 0.277141
vt 0.242941 0.313381
vt 0.218780 0.313381
vt 0.037582 0.446261
vt 0.110062 0.446260
vt 0.110061 0.554980
vt 0.037582 0.554980
vt 0.037581 0.240902
vt 0.110061 0.240902
vt 0.110061 0.277141
vt 0.037582 0.277142
vt 0.110062 0.337541
vt 0.037582 0.337541
vt 0.037582 0.301301
vt 0.110061 0.301301
vn 0.0000 0.0000 1.0000
vn 0.0000 1.0000 0.0000
vn 0.0000 0.0000 -1.0000
vn 1.0000 0.0000 0.0000
vn -1.0000 0.0000 0.0000
vn 0.0000 -1.0000 0.0000
vn -0.9487 0.3162 0.0000
vn 0.9487 0.3162 0.0000
vn -0.9487 -0.3162 0.0000
usemtl lambert1.001
s off
f 128/128/24 129/129/24 130/130/24
f 128/128/24 130/130/24 131/131/24
f 128/128/24 132/132/24 133/133/24
f 128/128/24 133/133/24 134/134/24
f 128/128/24 134/134/24 135/135/24
f 135/135/24 129/129/24 128/128/24
f 133/133/24 132/132/24 136/136/24
f 133/133/24 136/136/24 137/137/24
f 137/137/24 136/136/24 138/138/24
f 137/137/24 138/138/24 139/139/24
f 135/135/24 134/134/24 140/140/24
f 135/135/24 140/140/24 141/141/24
f 142/142/25 143/143/25 144/144/25
f 142/142/25 144/144/25 145/145/25
f 146/146/26 147/147/26 148/148/26
f 146/146/26 148/148/26 149/149/26
f 150/150/26 149/149/26 148/148/26
f 150/150/26 148/148/26 151/151/26
f 150/150/26 152/152/26 153/153/26
f 150/150/26 153/153/26 154/154/26
f 154/154/26 153/153/26 155/155/26
f 154/154/26 155/155/26 156/156/26
f 157/157/27 158/158/27 159/159/27
f 157/157/27 159/159/27 160/160/27
f 157/157/27 161/161/27 162/162/27
f 157/157/27 162/162/27 163/163/27
f 163/163/27 158/158/27 157/157/27
f 162/162/27 161/161/27 164/164/27
f 162/162/27 164/164/27 165/165/27
f 170/166/28 171/167/28 172/168/28
f 170/166/28 172/168/28 173/169/28
f 171/167/28 170/166/28 174/170/28
f 171/167/28 174/170/28 175/171/28
f 176/172/29 177/173/29 178/174/29
f 176/172/29 178/174/29 179/175/29
f 180/176/27 181/177/27 182/178/27
f 180/176/27 182/178/27 183/179/27
f 192/180/29 193/181/29 194/182/29
f 192/180/29 194/182/29 195/183/29
f 196/184/29 197/185/29 198/186/29
f 196/184/29 198/186/29 199/187/29
f 200/188/29 197/185/29 196/184/29
f 196/184/29 201/189/29 200/188/29
f 200/188/29 202/190/29 197/185/29
f 203/191/28 204/192/28 205/193/28
f 203/191/28 205/193/28 206/194/28
f 207/195/26 208/196/26 209/197/26
f 207/195/26 209/197/26 210/198/26
s 1
f 166/199/30 167/200/30 168/201/30
f 166/199/30 168/201/30 169/202/30
f 184/203/31 185/204/31 186/205/31
f 184/203/31 186/205/31 187/206/31
f 188/207/32 189/208/32 190/209/32
f 188/207/32 190/209/32 191/210/32
o LegLeft1_LegLeft1_1.001
v -0.000000 3.000000 1.000000
v 2.000000 3.000000 1.000000
v 2.000000 6.000000 1.000000
v -0.000000 6.000000 1.000000
v -0.000000 1.500000 1.000000
v 2.000000 1.500000 1.000000
v -0.000000 6.000000 1.000000
v 2.000000 6.000000 1.000000
v 2.000000 6.000000 -1.000000
v -0.000000 6.000000 -1.000000
v -0.000000 6.000000 -1.000000
v 2.000000 6.000000 -1.000000
v 2.000000 3.000000 -1.000000
v -0.000000 3.000000 -1.000000
v 2.000000 1.500000 -1.000000
v -0.000000 1.500000 -1.000000
v 2.000000 0.000000 -1.000000
v -0.000000 0.000000 -1.000000
v 2.000000 3.000000 1.000000
v 2.000000 3.000000 -1.000000
v 2.000000 6.000000 -1.000000
v 2.000000 6.000000 1.000000
v 2.000000 1.500000 1.000000
v 2.000000 1.500000 -1.000000
v 2.000000 0.000000 1.000000
v 2.000000 1.000000 2.000000
v 2.000000 0.000000 -1.000000
v 2.000000 0.000000 2.000000
v -0.000000 3.000000 -1.000000
v -0.000000 3.000000 1.000000
v -0.000000 6.000000 1.000000
v -0.000000 6.000000 -1.000000
v -0.000000 1.500000 -1.000000
v -0.000000 1.500000 1.000000
v -0.000000 0.000000 -1.000000
v -0.000000 0.000000 1.000000
v -0.000000 0.000000 2.000000
v -0.000000 1.000000 2.000000
v -0.000000 0.000000 -1.000000
v 2.000000 0.000000 -1.000000
v 2.000000 0.000000 1.000000
v -0.000000 0.000000 1.000000
v 2.000000 0.000000 2.000000
v -0.000000 0.000000 2.000000
v -0.000000 0.000000 2.000000
v 2.000000 0.000000 2.000000
v 2.000000 1.000000 2.000000
v -0.000000 1.000000 2.000000
v 2.000000 1.500000 1.000000
v -0.000000 1.500000 1.000000
v -0.000000 1.000000 2.000000
v 2.000000 1.000000 2.000000
vt 0.844309 0.189898
vt 0.913108 0.189898
vt 0.913108 0.293097
vt 0.844309 0.293097
vt 0.844309 0.138298
vt 0.913108 0.138298
vt 0.844309 0.293097
vt 0.913108 0.293097
vt 0.913108 0.361897
vt 0.844309 0.361897
vt 0.775509 0.293097
vt 0.706709 0.293097
vt 0.706709 0.189898
vt 0.775509 0.189898
vt 0.706709 0.138298
vt 0.775509 0.138298
vt 0.706709 0.086698
vt 0.775509 0.086698
vt 0.913108 0.189898
vt 0.981908 0.189898
vt 0.981908 0.293097
vt 0.913108 0.293097
vt 0.913108 0.138298
vt 0.981908 0.138298
vt 0.913108 0.086698
vt 0.878708 0.121098
vt 0.981908 0.086698
vt 0.878708 0.086698
vt 0.775509 0.189898
vt 0.844309 0.189898
vt 0.844309 0.293097
vt 0.775509 0.293097
vt 0.775509 0.138298
vt 0.844309 0.138298
vt 0.775509 0.086698
vt 0.844309 0.086698
vt 0.878708 0.086698
vt 0.878708 0.121098
vt 0.775509 0.086698
vt 0.775509 0.017898
vt 0.844309 0.017898
vt 0.844309 0.086698
vt 0.878708 0.017898
vt 0.878708 0.086698
vt 0.878708 0.086698
vt 0.878708 0.017898
vt 0.913108 0.017898
vt 0.913108 0.086698
vt 0.947508 0.017898
vt 0.947508 0.086698
vt 0.913108 0.086698
vt 0.913108 0.017898
vn 0.0000 0.0000 1.0000
vn 0.0000 1.0000 0.0000
vn 0.0000 0.0000 -1.0000
vn 1.0000 0.0000 0.0000
vn -1.0000 0.0000 0.0000
vn -0.0000 -1.0000 0.0000
vn 0.0000 0.8944 0.4472
usemtl lambert1.001
s off
f 211/211/33 212/212/33 213/213/33
f 211/211/33 213/213/33 214/214/33
f 215/215/33 212/212/33 211/211/33
f 215/215/33 216/216/33 212/212/33
f 217/217/34 218/218/34 219/219/34
f 217/217/34 219/219/34 220/220/34
f 221/221/35 222/222/35 223/223/35
f 221/221/35 223/223/35 224/224/35
f 224/224/35 223/223/35 225/225/35
f 224/224/35 225/225/35 226/226/35
f 226/226/35 225/225/35 227/227/35
f 226/226/35 227/227/35 228/228/35
f 229/229/36 230/230/36 231/231/36
f 229/229/36 231/231/36 232/232/36
f 233/233/36 230/230/36 229/229/36
f 233/233/36 234/234/36 230/230/36
f 235/235/36 233/233/36 236/236/36
f 235/235/36 234/234/36 233/233/36
f 235/235/36 237/237/36 234/234/36
f 235/235/36 236/236/36 238/238/36
f 239/239/37 240/240/37 241/241/37
f 239/239/37 241/241/37 242/242/37
f 243/243/37 240/240/37 239/239/37
f 243/243/37 244/244/37 240/240/37
f 245/245/37 244/244/37 243/243/37
f 244/244/37 246/246/37 247/247/37
f 244/244/37 247/247/37 248/248/37
f 245/245/37 246/246/37 244/244/37
f 249/249/38 250/250/38 251/251/38
f 249/249/38 251/251/38 252/252/38
f 252/252/38 251/251/38 253/253/38
f 252/252/38 253/253/38 254/254/38
f 255/255/33 256/256/33 257/257/33
f 255/255/33 257/257/33 258/258/33
f 259/259/39 260/260/39 261/261/39
f 259/259/39 261/261/39 262/262/39
o LegRight1_LegRight1_1.001
v -2.000000 3.000000 1.000000
v 0.000000 3.000000 1.000000
v 0.000000 6.000000 1.000000
v -2.000000 6.000000 1.000000
v -2.000000 1.500000 1.000000
v 0.000000 1.500000 1.000000
v -2.000000 6.000000 1.000000
v 0.000000 6.000000 1.000000
v 0.000000 6.000000 -1.000000
v -2.000000 6.000000 -1.000000
v -2.000000 6.000000 -1.000000
v 0.000000 6.000000 -1.000000
v 0.000000 3.000000 -1.000000
v -2.000000 3.000000 -1.000000
v 0.000000 1.500000 -1.000000
v -2.000000 1.500000 -1.000000
v 0.000000 0.000000 -1.000000
v -2.000000 0.000000 -1.000000
v 0.000000 3.000000 1.000000
v 0.000000 3.000000 -1.000000
v 0.000000 6.000000 -1.000000
v 0.000000 6.000000 1.000000
v 0.000000 1.500000 1.000000
v 0.000000 1.500000 -1.000000
v 0.000000 0.000000 1.000000
v 0.000000 1.000000 2.000000
v 0.000000 0.000000 -1.000000
v 0.000000 0.000000 2.000000
v -2.000000 3.000000 -1.000000
v -2.000000 3.000000 1.000000
v -2.000000 6.000000 1.000000
v -2.000000 6.000000 -1.000000
v -2.000000 1.500000 -1.000000
v -2.000000 1.500000 1.000000
v -2.000000 0.000000 -1.000000
v -2.000000 0.000000 1.000000
v -2.000000 0.000000 2.000000
v -2.000000 1.000000 2.000000
v -2.000000 0.000000 -1.000000
v 0.000000 0.000000 -1.000000
v 0.000000 0.000000 1.000000
v -2.000000 0.000000 1.000000
v 0.000000 0.000000 2.000000
v -2.000000 0.000000 2.000000
v -2.000000 0.000000 2.000000
v 0.000000 0.000000 2.000000
v 0.000000 1.000000 2.000000
v -2.000000 1.000000 2.000000
v 0.000000 1.500000 1.000000
v -2.000000 1.500000 1.000000
v -2.000000 1.000000 2.000000
v 0.000000 1.000000 2.000000
vt 0.356614 0.182628
vt 0.425413 0.182628
vt 0.425414 0.285828
vt 0.356614 0.285828
vt 0.356614 0.131029
vt 0.425413 0.131029
vt 0.356614 0.285828
vt 0.425414 0.285828
vt 0.425414 0.354627
vt 0.356614 0.354627
vt 0.563013 0.285828
vt 0.494213 0.285828
vt 0.494213 0.182629
vt 0.563013 0.182628
vt 0.494213 0.131029
vt 0.563013 0.131029
vt 0.494213 0.079429
vt 0.563013 0.079429
vt 0.425413 0.182628
vt 0.494213 0.182629
vt 0.494213 0.285828
vt 0.425414 0.285828
vt 0.425413 0.131029
vt 0.494213 0.131029
vt 0.425413 0.079429
vt 0.391014 0.113829
vt 0.494213 0.079429
vt 0.391014 0.079429
vt 0.287814 0.182628
vt 0.356614 0.182628
vt 0.356614 0.285828
vt 0.287814 0.285828
vt 0.287814 0.131029
vt 0.356614 0.131029
vt 0.287814 0.079429
vt 0.356614 0.079429
vt 0.391014 0.079429
vt 0.391014 0.113829
vt 0.494213 0.010629
vt 0.494213 0.079429
vt 0.425413 0.079429
vt 0.425413 0.010629
vt 0.391014 0.079429
vt 0.391013 0.010629
vt 0.391013 0.010629
vt 0.391014 0.079429
vt 0.356614 0.079429
vt 0.356614 0.010629
vt 0.322214 0.079429
vt 0.322214 0.010629
vt 0.356614 0.010629
vt 0.356614 0.079429
vn 0.0000 0.0000 1.0000
vn 0.0000 1.0000 0.0000
vn 0.0000 0.0000 -1.0000
vn 1.0000 -0.0000 0.0000
vn -1.0000 0.0000 0.0000
vn 0.0000 -1.0000 0.0000
vn 0.0000 0.8944 0.4472
usemtl lambert1.001
s off
f 263/263/40 264/264/40 265/265/40
f 263/263/40 265/265/40 266/266/40
f 267/267/40 264/264/40 263/263/40
f 267/267/40 268/268/40 264/264/40
f 269/269/41 270/270/41 271/271/41
f 269/269/41 271/271/41 272/272/41
f 273/273/42 274/274/42 275/275/42
f 273/273/42 275/275/42 276/276/42
f 276/276/42 275/275/42 277/277/42
f 276/276/42 277/277/42 278/278/42
f 278/278/42 277/277/42 279/279/42
f 278/278/42 279/279/42 280/280/42
f 281/281/43 282/282/43 283/283/43
f 281/281/43 283/283/43 284/284/43
f 285/285/43 282/282/43 281/281/43
f 285/285/43 286/286/43 282/282/43
f 287/287/43 286/286/43 285/285/43
f 287/287/43 285/285/43 288/288/43
f 287/287/43 289/289/43 286/286/43
f 287/287/43 288/288/43 290/290/43
f 291/291/44 292/292/44 293/293/44
f 291/291/44 293/293/44 294/294/44
f 295/295/44 292/292/44 291/291/44
f 295/295/44 296/296/44 292/292/44
f 297/297/44 296/296/44 295/295/44
f 297/297/44 298/298/44 296/296/44
f 296/296/44 298/298/44 299/299/44
f 296/296/44 299/299/44 300/300/44
f 301/301/45 302/302/45 303/303/45
f 301/301/45 303/303/45 304/304/45
f 304/304/45 303/303/45 305/305/45
f 304/304/45 305/305/45 306/306/45
f 307/307/40 308/308/40 309/309/40
f 307/307/40 309/309/40 310/310/40
f 311/311/46 312/312/46 313/313/46
f 311/311/46 313/313/46 314/314/46
